HIERARCHY
ROOT Hips
{
	OFFSET -338.882294 -555.210510 88.995560
	CHANNELS 6 Xposition Yposition Zposition Zrotation Yrotation Xrotation
	JOINT Spine
	{
		OFFSET 0.000000 2.080078 8.814247
		CHANNELS 6 Xposition Yposition Zposition Zrotation Yrotation Xrotation
		JOINT Spine1
		{
			OFFSET 0.000000 0.000000 8.844139
			CHANNELS 6 Xposition Yposition Zposition Zrotation Yrotation Xrotation
			JOINT Spine2
			{
				OFFSET 0.000000 0.000000 11.682266
				CHANNELS 6 Xposition Yposition Zposition Zrotation Yrotation Xrotation
				JOINT Spine3
				{
					OFFSET 0.000000 0.000000 11.746704
					CHANNELS 6 Xposition Yposition Zposition Zrotation Yrotation Xrotation
					JOINT Neck
					{
						OFFSET 0.000000 0.000000 17.658264
						CHANNELS 6 Xposition Yposition Zposition Zrotation Yrotation Xrotation
						JOINT Neck1
						{
							OFFSET 0.000000 0.000000 5.101517
							CHANNELS 6 Xposition Yposition Zposition Zrotation Yrotation Xrotation
							JOINT Head
							{
								OFFSET 0.000000 0.000000 5.101517
								CHANNELS 6 Xposition Yposition Zposition Zrotation Yrotation Xrotation
								JOINT HeadEnd
								{
									OFFSET 0.000000 0.000000 11.655090
									CHANNELS 6 Xposition Yposition Zposition Zrotation Yrotation Xrotation
									End Site
									{
										OFFSET 0.000000 0.000000 0.100006
									}
								}
							}
						}
					}
					JOINT RightShoulder
					{
						OFFSET -2.625397 0.000000 11.175217
						CHANNELS 6 Xposition Yposition Zposition Zrotation Yrotation Xrotation
						JOINT RightArm
						{
							OFFSET 0.000000 0.000000 10.434723
							CHANNELS 6 Xposition Yposition Zposition Zrotation Yrotation Xrotation
							JOINT RightForeArm
							{
								OFFSET 0.000000 0.000000 29.628418
								CHANNELS 6 Xposition Yposition Zposition Zrotation Yrotation Xrotation
								JOINT RightHand
								{
									OFFSET 0.000000 0.000000 22.857605
									CHANNELS 6 Xposition Yposition Zposition Zrotation Yrotation Xrotation
									JOINT RightHandThumb1
									{
										OFFSET -2.867310 -2.944275 3.959564
										CHANNELS 6 Xposition Yposition Zposition Zrotation Yrotation Xrotation
										JOINT RightHandThumb2
										{
											OFFSET 0.000000 0.000000 3.350403
											CHANNELS 6 Xposition Yposition Zposition Zrotation Yrotation Xrotation
											JOINT RightHandThumb3
											{
												OFFSET 0.000000 0.000000 3.756516
												CHANNELS 6 Xposition Yposition Zposition Zrotation Yrotation Xrotation
												JOINT RightHandThumb4
												{
													OFFSET 0.000000 0.000000 3.147339
													CHANNELS 6 Xposition Yposition Zposition Zrotation Yrotation Xrotation
													End Site
													{
														OFFSET 0.000000 0.000000 0.100006
													}
												}
											}
										}
									}
									JOINT RightHandIndex1
									{
										OFFSET -0.086761 -2.345276 10.030899
										CHANNELS 6 Xposition Yposition Zposition Zrotation Yrotation Xrotation
										JOINT RightHandIndex2
										{
											OFFSET 0.000000 0.000000 4.061096
											CHANNELS 6 Xposition Yposition Zposition Zrotation Yrotation Xrotation
											JOINT RightHandIndex3
											{
												OFFSET 0.000000 0.000000 3.248871
												CHANNELS 6 Xposition Yposition Zposition Zrotation Yrotation Xrotation
												JOINT RightHandIndex4
												{
													OFFSET 0.000000 0.000000 2.639709
													CHANNELS 6 Xposition Yposition Zposition Zrotation Yrotation Xrotation
													End Site
													{
														OFFSET 0.000000 0.000000 0.100006
													}
												}
											}
										}
									}
									JOINT RightHandMiddle1
									{
										OFFSET 0.104095 -0.006775 9.502945
										CHANNELS 6 Xposition Yposition Zposition Zrotation Yrotation Xrotation
										JOINT RightHandMiddle2
										{
											OFFSET 0.000000 0.000000 4.568726
											CHANNELS 6 Xposition Yposition Zposition Zrotation Yrotation Xrotation
											JOINT RightHandMiddle3
											{
												OFFSET 0.000000 0.000000 3.654984
												CHANNELS 6 Xposition Yposition Zposition Zrotation Yrotation Xrotation
												JOINT RightHandMiddle4
												{
													OFFSET 0.000000 0.000000 2.741241
													CHANNELS 6 Xposition Yposition Zposition Zrotation Yrotation Xrotation
													End Site
													{
														OFFSET 0.000000 0.000000 0.100006
													}
												}
											}
										}
									}
									JOINT RightHandRing1
									{
										OFFSET 0.086761 2.267456 8.921707
										CHANNELS 6 Xposition Yposition Zposition Zrotation Yrotation Xrotation
										JOINT RightHandRing2
										{
											OFFSET 0.000000 0.000000 4.061096
											CHANNELS 6 Xposition Yposition Zposition Zrotation Yrotation Xrotation
											JOINT RightHandRing3
											{
												OFFSET 0.000000 0.000000 3.654984
												CHANNELS 6 Xposition Yposition Zposition Zrotation Yrotation Xrotation
												JOINT RightHandRing4
												{
													OFFSET 0.000000 0.000000 2.741241
													CHANNELS 6 Xposition Yposition Zposition Zrotation Yrotation Xrotation
													End Site
													{
														OFFSET 0.000000 0.000000 0.100006
													}
												}
											}
										}
									}
									JOINT RightHandPinky1
									{
										OFFSET -0.173492 4.467224 7.976990
										CHANNELS 6 Xposition Yposition Zposition Zrotation Yrotation Xrotation
										JOINT RightHandPinky2
										{
											OFFSET 0.000000 0.000000 3.350403
											CHANNELS 6 Xposition Yposition Zposition Zrotation Yrotation Xrotation
											JOINT RightHandPinky3
											{
												OFFSET 0.000000 0.000000 2.842758
												CHANNELS 6 Xposition Yposition Zposition Zrotation Yrotation Xrotation
												JOINT RightHandPinky4
												{
													OFFSET 0.000000 0.000000 2.639709
													CHANNELS 6 Xposition Yposition Zposition Zrotation Yrotation Xrotation
													End Site
													{
														OFFSET 0.000000 0.000000 0.100006
													}
												}
											}
										}
									}
									JOINT RightForeArmEnd
									{
										OFFSET 0.000000 0.000000 0.000000
										CHANNELS 6 Xposition Yposition Zposition Zrotation Yrotation Xrotation
										End Site
										{
											OFFSET 0.000000 0.000000 0.100006
										}
									}
								}
								JOINT RightArmEnd
								{
									OFFSET 0.000000 0.000000 0.000000
									CHANNELS 6 Xposition Yposition Zposition Zrotation Yrotation Xrotation
									End Site
									{
										OFFSET 0.000000 0.000000 0.100006
									}
								}
							}
						}
					}
					JOINT LeftShoulder
					{
						OFFSET 2.625397 0.000000 11.175217
						CHANNELS 6 Xposition Yposition Zposition Zrotation Yrotation Xrotation
						JOINT LeftArm
						{
							OFFSET 0.000000 0.000000 10.813629
							CHANNELS 6 Xposition Yposition Zposition Zrotation Yrotation Xrotation
							JOINT LeftForeArm
							{
								OFFSET 0.000000 0.000000 28.724777
								CHANNELS 6 Xposition Yposition Zposition Zrotation Yrotation Xrotation
								JOINT LeftHand
								{
									OFFSET 0.644379 0.328857 25.716171
									CHANNELS 6 Xposition Yposition Zposition Zrotation Yrotation Xrotation
									JOINT LeftHandThumb1
									{
										OFFSET 2.867310 -2.944275 3.959564
										CHANNELS 6 Xposition Yposition Zposition Zrotation Yrotation Xrotation
										JOINT LeftHandThumb2
										{
											OFFSET 0.000000 0.000000 3.350403
											CHANNELS 6 Xposition Yposition Zposition Zrotation Yrotation Xrotation
											JOINT LeftHandThumb3
											{
												OFFSET 0.000000 0.000000 3.756516
												CHANNELS 6 Xposition Yposition Zposition Zrotation Yrotation Xrotation
												JOINT LeftHandThumb4
												{
													OFFSET 0.000000 0.000000 3.100006
													CHANNELS 6 Xposition Yposition Zposition Zrotation Yrotation Xrotation
													End Site
													{
														OFFSET 0.000000 0.000000 0.100006
													}
												}
											}
										}
									}
									JOINT LeftHandIndex1
									{
										OFFSET 0.086761 -2.345276 10.030899
										CHANNELS 6 Xposition Yposition Zposition Zrotation Yrotation Xrotation
										JOINT LeftHandIndex2
										{
											OFFSET 0.000000 0.000000 4.061096
											CHANNELS 6 Xposition Yposition Zposition Zrotation Yrotation Xrotation
											JOINT LeftHandIndex3
											{
												OFFSET 0.000000 0.000000 3.248871
												CHANNELS 6 Xposition Yposition Zposition Zrotation Yrotation Xrotation
												JOINT LeftHandIndex4
												{
													OFFSET 0.000000 0.000000 2.639709
													CHANNELS 6 Xposition Yposition Zposition Zrotation Yrotation Xrotation
													End Site
													{
														OFFSET 0.000000 0.000000 0.100006
													}
												}
											}
										}
									}
									JOINT LeftHandMiddle1
									{
										OFFSET -0.104095 -0.006775 9.502945
										CHANNELS 6 Xposition Yposition Zposition Zrotation Yrotation Xrotation
										JOINT LeftHandMiddle2
										{
											OFFSET 0.000000 0.000000 4.568726
											CHANNELS 6 Xposition Yposition Zposition Zrotation Yrotation Xrotation
											JOINT LeftHandMiddle3
											{
												OFFSET 0.000000 0.000000 3.654984
												CHANNELS 6 Xposition Yposition Zposition Zrotation Yrotation Xrotation
												JOINT LeftHandMiddle4
												{
													OFFSET 0.000000 0.000000 2.741241
													CHANNELS 6 Xposition Yposition Zposition Zrotation Yrotation Xrotation
													End Site
													{
														OFFSET 0.000000 0.000000 0.100006
													}
												}
											}
										}
									}
									JOINT LeftHandRing1
									{
										OFFSET -0.086761 2.267456 8.921707
										CHANNELS 6 Xposition Yposition Zposition Zrotation Yrotation Xrotation
										JOINT LeftHandRing2
										{
											OFFSET 0.000000 0.000000 4.061096
											CHANNELS 6 Xposition Yposition Zposition Zrotation Yrotation Xrotation
											JOINT LeftHandRing3
											{
												OFFSET 0.000000 0.000000 3.654984
												CHANNELS 6 Xposition Yposition Zposition Zrotation Yrotation Xrotation
												JOINT LeftHandRing4
												{
													OFFSET 0.000000 0.000000 2.741241
													CHANNELS 6 Xposition Yposition Zposition Zrotation Yrotation Xrotation
													End Site
													{
														OFFSET 0.000000 0.000000 0.100006
													}
												}
											}
										}
									}
									JOINT LeftHandPinky1
									{
										OFFSET 0.173492 4.467224 7.976990
										CHANNELS 6 Xposition Yposition Zposition Zrotation Yrotation Xrotation
										JOINT LeftHandPinky2
										{
											OFFSET 0.000000 0.000000 3.350403
											CHANNELS 6 Xposition Yposition Zposition Zrotation Yrotation Xrotation
											JOINT LeftHandPinky3
											{
												OFFSET 0.000000 0.000000 2.842758
												CHANNELS 6 Xposition Yposition Zposition Zrotation Yrotation Xrotation
												JOINT LeftHandPinky4
												{
													OFFSET 0.000000 0.000000 2.639709
													CHANNELS 6 Xposition Yposition Zposition Zrotation Yrotation Xrotation
													End Site
													{
														OFFSET 0.000000 0.000000 0.100006
													}
												}
											}
										}
									}
									JOINT LeftForeArmEnd
									{
										OFFSET 0.000000 0.000000 0.000000
										CHANNELS 6 Xposition Yposition Zposition Zrotation Yrotation Xrotation
										End Site
										{
											OFFSET 0.000000 0.000000 0.100006
										}
									}
								}
								JOINT LeftArmEnd
								{
									OFFSET 0.000000 0.000000 0.000000
									CHANNELS 6 Xposition Yposition Zposition Zrotation Yrotation Xrotation
									End Site
									{
										OFFSET 0.000000 0.000000 0.100006
									}
								}
							}
						}
					}
				}
			}
		}
	}
	JOINT RightUpLeg
	{
		OFFSET -11.289948 0.000000 0.000000
		CHANNELS 6 Xposition Yposition Zposition Zrotation Yrotation Xrotation
		JOINT RightLeg
		{
			OFFSET 0.000000 0.000000 -38.200321
			CHANNELS 6 Xposition Yposition Zposition Zrotation Yrotation Xrotation
			JOINT RightFoot
			{
				OFFSET 0.000000 0.000000 -39.900856
				CHANNELS 6 Xposition Yposition Zposition Zrotation Yrotation Xrotation
				JOINT RightToeBase
				{
					OFFSET 0.000000 -15.261658 0.000001
					CHANNELS 6 Xposition Yposition Zposition Zrotation Yrotation Xrotation
					JOINT RightToeBaseEnd
					{
						OFFSET 0.000000 -7.370728 0.000001
						CHANNELS 6 Xposition Yposition Zposition Zrotation Yrotation Xrotation
						End Site
						{
							OFFSET 0.000000 0.000000 0.100000
						}
					}
				}
				JOINT RightLegEnd
				{
					OFFSET 0.000000 0.000000 0.000000
					CHANNELS 6 Xposition Yposition Zposition Zrotation Yrotation Xrotation
					End Site
					{
						OFFSET 0.000000 0.000000 0.100000
					}
				}
			}
			JOINT RightUpLegEnd
			{
				OFFSET 0.000000 0.000000 0.000000
				CHANNELS 6 Xposition Yposition Zposition Zrotation Yrotation Xrotation
				End Site
				{
					OFFSET 0.000000 0.000000 0.099998
				}
			}
		}
	}
	JOINT LeftUpLeg
	{
		OFFSET 11.315674 0.000000 0.000000
		CHANNELS 6 Xposition Yposition Zposition Zrotation Yrotation Xrotation
		JOINT LeftLeg
		{
			OFFSET 0.000000 0.000000 -38.200321
			CHANNELS 6 Xposition Yposition Zposition Zrotation Yrotation Xrotation
			JOINT LeftFoot
			{
				OFFSET 0.000000 0.000000 -39.900856
				CHANNELS 6 Xposition Yposition Zposition Zrotation Yrotation Xrotation
				JOINT LeftToeBase
				{
					OFFSET 0.000000 -15.261658 0.000001
					CHANNELS 6 Xposition Yposition Zposition Zrotation Yrotation Xrotation
					JOINT LeftToeBaseEnd
					{
						OFFSET 0.000000 -7.539978 0.000001
						CHANNELS 6 Xposition Yposition Zposition Zrotation Yrotation Xrotation
						End Site
						{
							OFFSET 0.000000 0.000000 0.100000
						}
					}
				}
				JOINT LeftLegEnd
				{
					OFFSET 0.000000 0.000000 0.000000
					CHANNELS 6 Xposition Yposition Zposition Zrotation Yrotation Xrotation
					End Site
					{
						OFFSET 0.000000 0.000000 0.100000
					}
				}
			}
			JOINT LeftUpLegEnd
			{
				OFFSET 0.000000 0.000000 0.000000
				CHANNELS 6 Xposition Yposition Zposition Zrotation Yrotation Xrotation
				End Site
				{
					OFFSET 0.000000 0.000000 0.099998
				}
			}
		}
	}
}
MOTION
Frames: 2
Frame Time: 0.016667
-2.162231 -5.823608 86.726952 17.306656 3.636216 -11.582018 0.000006 2.080061 8.814228 -1.057897 -5.573979 7.515325 -0.000001 0.000010 8.844139 0.290009 0.322925 3.227112 0.000011 -0.000007 11.682270 -1.181801 0.767957 5.330298 -0.000011 -0.000006 11.746700 0.004493 1.846971 4.260175 0.000002 -0.000012 17.658268 -8.051645 -9.779194 2.236735 -0.000030 -0.000012 5.101518 -4.278135 0.033535 -5.211719 -0.000003 0.000017 5.101518 -1.004484 -0.586809 -15.843828 -0.000001 0.000000 11.655078 0.000000 0.000001 0.000000 -2.625387 -0.000021 11.175213 11.324394 -84.855525 0.116485 -0.000008 0.000014 10.434711 -46.675672 -68.409993 40.703549 -0.000002 -0.000042 29.628433 19.985190 0.154909 18.155051 0.000028 -0.000095 22.857647 10.877044 6.825459 -14.558791 -2.867317 -2.944305 3.959557 32.873000 -12.350661 59.650392 0.000011 0.000023 3.350391 -2.116789 1.968279 -4.165480 0.000004 -0.000001 3.756508 -1.454770 1.383298 -2.885067 -0.000006 -0.000004 3.147347 0.000000 -0.000002 0.000002 -0.086777 -2.345238 10.030907 -3.749555 32.483881 9.682942 -0.000008 0.000011 4.061099 0.563997 0.000005 -0.000025 -0.000015 0.000028 3.248876 0.060189 -0.000002 0.004172 0.000035 -0.000004 2.639719 0.000001 -0.000004 0.000003 0.104099 -0.006780 9.502987 2.027963 31.486697 6.833326 -0.000007 0.000025 4.568763 0.514668 -0.000120 -0.000011 -0.000002 0.000013 3.655000 0.013599 -0.000032 -0.002470 -0.000004 0.000001 2.741264 0.000000 -0.000006 0.000004 0.086761 2.267444 8.921745 11.319027 30.791142 4.106114 0.000031 0.000024 4.061113 -1.046070 -0.034277 0.000572 0.000025 -0.000026 3.654982 -0.030977 0.018121 0.000603 0.000002 0.000001 2.741255 0.000000 -0.000002 0.000000 -0.173485 4.467224 7.976981 20.566480 29.889779 0.415632 0.000013 0.000010 3.350407 -2.054677 0.000005 -0.000085 0.000002 -0.000020 2.842747 -0.046207 -0.000012 0.003492 -0.000006 -0.000001 2.639708 0.000000 -0.000004 -0.000000 -0.000012 -0.000004 -0.000016 0.000001 0.000001 0.000001 0.000037 -0.000008 0.000020 0.000002 0.000002 0.000001 2.625410 -0.000001 11.175224 -9.603996 84.548391 -0.210718 0.000022 0.000025 10.813629 24.660473 77.250806 26.591060 -0.000040 -0.000023 28.724842 -3.151379 -0.099460 33.086256 0.644314 0.328850 25.716141 -20.694640 -28.446107 -22.066552 2.867264 -2.944305 3.959579 -34.055310 30.496177 33.212953 0.000015 -0.000015 3.350433 41.241488 -7.904721 -69.191237 -0.000015 0.000000 3.756531 27.991616 -11.050174 -47.636587 0.000006 0.000000 3.100006 -0.000000 0.000001 0.000001 0.086746 -2.345268 10.030884 145.284162 58.508008 -46.598351 -0.000023 0.000004 4.061089 -29.996541 77.080433 -37.782977 -0.000011 0.000002 3.248890 -30.496562 77.080440 -37.782991 0.000003 0.000006 2.639724 -0.000001 0.000001 0.000001 -0.104122 -0.006779 9.502945 -17.246468 -48.931369 23.977352 -0.000003 -0.000020 4.568726 0.553618 0.055943 0.000434 -0.000005 0.000020 3.654971 0.049095 -0.031103 -0.001296 -0.000022 0.000011 2.741235 -0.000001 0.000000 -0.000001 -0.086767 2.267449 8.921713 -4.027717 -46.409534 4.135325 -0.000020 -0.000010 4.061096 -1.065587 0.000006 -0.000157 -0.000003 -0.000022 3.654994 -0.052040 -0.000005 -0.043142 0.000011 0.000007 2.741250 -0.000001 -0.000000 0.000002 0.173478 4.467232 7.977020 8.134467 -36.644122 -13.831703 0.000010 -0.000018 3.350401 -2.072285 -0.000009 -0.000074 -0.000001 0.000016 2.842777 -0.069361 -0.000002 0.002734 0.000004 -0.000059 2.639702 -0.000000 -0.000002 -0.000001 -0.000004 0.000010 0.000033 -0.000001 0.000004 0.000001 0.000028 -0.000007 -0.000008 -0.000000 -0.000000 0.000001 -11.289980 -0.000034 -0.000031 -22.086383 5.786735 14.639051 0.000007 0.000016 -38.200325 -1.458290 0.328450 12.690364 -0.000060 -0.000053 -39.900856 -23.391735 -8.488067 14.601391 0.000014 -15.261742 0.000019 2.375445 1.520727 -15.794836 0.000011 -7.370727 0.000001 -0.000000 -0.000000 -0.000000 -0.000038 -0.000017 0.000000 0.000003 -0.000000 -0.000001 -0.000031 -0.000066 0.000004 0.000001 0.000001 0.000001 11.315668 -0.000013 -0.000027 -18.916779 -16.232993 4.446392 -0.000008 0.000003 -38.200333 1.946368 -0.790852 22.104869 -0.000046 -0.000039 -39.900864 0.702115 8.486812 18.692636 -0.000037 -15.261719 0.000022 -1.859126 -1.236635 -20.964408 -0.000028 -7.539976 0.000002 -0.000000 0.000000 0.000000 -0.000035 -0.000051 0.000002 -0.000002 -0.000001 -0.000000 -0.000024 -0.000002 -0.000006 0.000001 0.000002 -0.000001 
-1.165802 -5.864075 86.573318 17.347075 3.892765 -12.148466 0.000011 2.080093 8.814240 -1.096525 -5.576655 7.779650 0.000002 0.000013 8.844142 0.246523 0.164233 3.226586 -0.000002 -0.000017 11.682274 -1.164597 0.668949 5.431311 0.000014 -0.000088 11.746727 0.060882 1.742701 4.342507 0.000011 0.000013 17.658272 -8.259998 -9.794321 2.068643 -0.000009 0.000010 5.101543 -4.464044 0.008016 -5.482642 -0.000010 0.000001 5.101545 -0.991455 -0.702407 -16.334409 -0.000002 -0.000001 11.655078 0.000000 0.000001 0.000000 -2.625402 -0.000027 11.175226 11.206796 -85.040493 0.126463 -0.000015 -0.000003 10.434734 -47.811211 -67.109108 42.180735 -0.000002 0.000011 29.628447 20.475819 0.013921 19.898335 0.000002 -0.000050 22.857609 9.620511 7.878273 -13.977396 -2.867302 -2.944305 3.959526 32.873011 -12.350637 59.650508 -0.000043 0.000002 3.350421 -2.116805 1.968273 -4.165777 -0.000010 -0.000002 3.756495 -1.454730 1.383264 -2.884888 -0.000008 0.000007 3.147342 -0.000000 -0.000000 0.000001 -0.086761 -2.345251 10.030876 -3.667239 33.118286 9.275294 -0.000014 0.000008 4.061110 0.567683 -0.000000 -0.000030 -0.000007 -0.000002 3.248876 0.063680 0.000000 0.004370 -0.000004 -0.000003 2.639723 0.000001 0.000000 0.000000 0.104096 -0.006801 9.502914 2.169489 32.193547 6.665453 -0.000005 0.000024 4.568748 0.515683 -0.000090 -0.000009 -0.000013 -0.000015 3.655002 0.014375 -0.000021 -0.002629 0.000013 0.000003 2.741270 0.000000 -0.000002 0.000000 0.086754 2.267431 8.921715 11.568538 31.607756 4.242348 -0.000009 -0.000007 4.061110 -1.048317 0.000001 -0.000056 0.000039 -0.000016 3.654984 -0.032471 0.000002 0.000704 0.000031 -0.000002 2.741270 -0.000000 0.000001 0.000001 -0.173492 4.467232 7.976962 20.926325 30.737801 0.933381 -0.000004 0.000004 3.350410 -2.057808 -0.000296 -0.000078 0.000002 -0.000009 2.842754 -0.048864 -0.000001 0.003706 0.000001 -0.000003 2.639719 0.000000 -0.000002 -0.000000 0.000003 0.000006 -0.000031 -0.000001 0.000001 0.000000 0.000007 -0.000001 -0.000008 -0.000000 0.000000 0.000001 2.625391 -0.000023 11.175221 -9.700263 84.648652 -0.218829 0.000023 -0.000009 10.813622 24.404348 76.960058 27.051214 -0.000009 0.000014 28.724848 -1.838467 -0.134369 33.646895 0.644402 0.328857 25.716156 -20.875618 -29.088304 -21.498242 2.867337 -2.944290 3.959610 -34.055289 30.496170 33.212973 0.000008 0.000000 3.350449 41.241478 -7.904731 -69.191237 0.000000 0.000000 3.756561 27.991608 -11.049916 -47.636451 0.000005 -0.000001 3.099992 0.000001 -0.000001 -0.000000 0.086761 -2.345257 10.030907 144.811977 58.874503 -47.464023 0.000031 0.000015 4.061077 -29.061031 76.802998 -36.822629 0.000011 0.000015 3.248894 -29.561004 76.802984 -36.822608 0.000003 0.000002 2.639717 -0.000000 -0.000000 -0.000001 -0.104078 -0.006790 9.502960 -17.469370 -49.345654 24.202582 -0.000008 0.000014 4.568720 0.555904 0.000006 -0.000111 0.000008 -0.000029 3.654967 0.051091 0.000001 -0.001314 0.000013 0.000002 2.741222 -0.000000 -0.000000 0.000000 -0.086766 2.267477 8.921747 -4.128238 -46.778893 3.650514 -0.000011 -0.000015 4.061103 -1.065628 -0.014338 0.000111 0.000009 -0.000002 3.654999 -0.052031 -0.000001 -0.040213 0.000007 0.000001 2.741252 -0.000000 0.000000 0.000001 0.173500 4.467228 7.977036 8.023467 -36.641236 -15.089858 -0.000009 -0.000027 3.350407 -2.071822 -0.000009 -0.000078 0.000043 -0.000002 2.842759 -0.067919 0.000001 0.002607 -0.000012 -0.000003 2.639708 -0.000001 0.000002 -0.000005 -0.000003 -0.000041 0.000047 -0.000003 -0.000001 0.000001 0.000060 0.000002 -0.000000 -0.000000 -0.000002 -0.000003 -11.289968 -0.000034 -0.000008 -21.607628 6.352356 15.052504 -0.000017 -0.000049 -38.200314 -1.526713 0.356187 13.129253 -0.000040 -0.000010 -39.900871 -23.621484 -9.238452 14.775607 -0.000007 -15.261812 0.000016 2.412530 1.662025 -15.650506 0.000004 -7.370779 0.000001 -0.000002 -0.000000 0.000000 -0.000022 -0.000004 0.000001 0.000001 0.000001 0.000001 0.000004 0.000004 -0.000003 -0.000001 -0.000000 0.000000 11.315632 -0.000073 -0.000023 -18.186502 -15.826930 4.398495 -0.000045 -0.000016 -38.200344 1.859519 -0.803528 23.362151 -0.000012 0.000011 -39.900856 0.241273 8.084572 16.733205 -0.000028 -15.261720 0.000029 -1.905246 -1.178750 -20.492046 -0.000025 -7.539977 0.000002 -0.000000 -0.000000 0.000000 -0.000022 0.000000 0.000001 -0.000000 -0.000000 0.000002 -0.000021 0.000001 -0.000005 -0.000000 0.000001 -0.000003 
